<?xml version="1.0" encoding="UTF-8"?><svg id="Layer_2" xmlns="http://www.w3.org/2000/svg" viewBox="0 0 132.33 32.06"><defs><style>.cls-1{fill:#fff;}</style></defs><g id="Layer_1-2"><g><polygon class="cls-1" points="60.02 28.68 59.65 28.68 59.65 32.06 63.2 32.06 63.2 31.74 60.02 31.74 60.02 28.68"/><path class="cls-1" d="M65.62,28.61l-2.17,3.44h.44l.52-.84h2.7l.52,.84h.45l-2.16-3.44h-.28Zm-1.02,2.29l1.16-1.87,1.15,1.87h-2.31Z"/><path class="cls-1" d="M71.9,30.1c.32-.09,.54-.34,.54-.66,0-.58-.54-.76-1.03-.76h-2.77v3.37h2.77c.67,0,1.32-.35,1.32-1.09,0-.49-.36-.79-.83-.87Zm-2.9-1.11h2.37c.35,0,.69,.12,.69,.49,0,.34-.33,.52-.68,.52h-2.39v-1Zm2.38,2.75h-2.38v-1.44h2.33c.7,0,1.02,.27,1.02,.68,0,.51-.46,.76-.97,.76Z"/><path class="cls-1" d="M5.21,22.45c-1.54,0-3.7-1.01-5.04-2.27v.59c1.34,1.26,3.5,2.16,5.04,2.16,2.18,0,2.94-1.01,2.94-2.1,0-1.26-.39-2.16-3.42-3.72C1.85,15.67,.53,14.05,.53,11.75c0-3.11,2.13-5.04,5.35-5.04,1.51,0,3.08,.45,4.37,1.23v-.62c-1.29-.78-2.86-1.12-4.37-1.12C2.35,6.21,0,8.45,0,11.84,0,14.33,1.4,16.01,4.51,17.55c2.69,1.34,3.11,2.16,3.11,3.28,0,.9-.62,1.62-2.41,1.62Z"/><path class="cls-1" d="M11.28,20.66c0-3.28-1.99-4.68-4.56-6.02-2.63-1.37-3.08-2.07-3.08-3.22,0-.9,.67-1.85,2.32-1.85,1.32,0,2.74,.48,4.28,1.51v-2.1c-1.46-.95-2.86-1.32-4.23-1.32-2.77,0-4.45,1.71-4.45,3.98s1.4,3.36,4.2,4.87c2.38,1.26,3.44,2.35,3.44,4.26s-1.34,3.11-3.84,3.11c-1.76,0-3.58-.64-5.21-1.9v2.32c1.6,.95,3.36,1.51,5.24,1.51,3.36,0,5.88-1.93,5.88-5.15Z"/><rect class="cls-1" x="12.57" y="6.46" width="15.88" height=".5"/><polygon class="cls-1" points="22.4 25.56 22.4 9.74 28.45 9.74 28.45 7.89 12.57 7.89 12.57 9.74 18.73 9.74 18.73 25.56 19.26 25.56 19.26 9.74 20.3 9.74 20.3 25.56 22.4 25.56"/><polygon class="cls-1" points="34.97 6.35 34.44 6.35 26.49 25.56 27.02 25.56 34.97 6.35"/><path class="cls-1" d="M43.29,25.56h2.18L37.32,6.35h-1.32l-7.95,19.21h2.18l2.46-5.99h6.52l2.49,5.99h.53l-2.49-5.99h1.01l2.52,5.99Zm-7.39-14.03l1.99,4.76h-3.89l1.9-4.76Zm-2.49,6.19l.36-.92h4.87l-2.46-5.91,.5-1.23,3.36,8.06h-6.64Z"/><path class="cls-1" d="M57.12,18.92c-.98-1.51-1.62-2.21-2.72-2.66,2.3-.5,3.7-2.21,3.7-4.12,0-2.58-1.34-4.26-5.12-4.26h-3.98V25.56h2.1v-8.96c1.4,.08,2.74,.84,3.98,2.77l3.78,6.19h2.52l-4.26-6.64Zm-4.51-4.14h-1.51v-5.04h1.76c2.52,0,3,.87,3,2.49s-1.15,2.55-3.25,2.55Z"/><path class="cls-1" d="M59.67,11.81c0-3.19-2.27-5.35-6.41-5.35h-5.82V25.56h.53V6.96h5.29c3.81,0,5.88,1.93,5.88,4.84,0,2.13-.95,3.84-3.08,4.65,.84,.59,1.32,1.18,2.16,2.46l4.34,6.64h.59l-4.54-6.89c-.7-1.04-1.15-1.62-1.74-2.13,1.85-.92,2.8-2.66,2.8-4.73Z"/><path class="cls-1" d="M64.93,6.46V25.56h5.94c5.99,0,11.23-2.63,11.23-9.55s-5.21-9.55-11.28-9.55h-5.88Zm16.63,9.55c0,6.58-5.01,9.04-10.7,9.04h-5.4V6.96h5.35c5.77,0,10.75,2.46,10.75,9.04Z"/><path class="cls-1" d="M66.5,7.89V24.13h4.37c5.1,0,9.66-2.21,9.66-8.12s-4.54-8.12-9.72-8.12h-4.31Zm11.79,8.15c0,4.23-2.88,6.24-7.56,6.24h-2.13V9.74h2.07c4.82,0,7.62,2.1,7.62,6.3Z"/><path class="cls-1" d="M86.46,6.46v10.95c0,4.98,2.66,6.97,6.58,6.97s6.47-2.27,6.47-7.11V6.46h-2.1v10.64c0,3.84-1.23,5.38-4.4,5.38s-4.45-1.76-4.45-5.24V6.46h-2.1Z"/><path class="cls-1" d="M84.9,6.46v11.06c0,4.68,2.44,8.29,8.15,8.29s8.04-3.56,8.04-8.43V6.46h-.53v10.92c0,4.45-2.13,7.92-7.53,7.92s-7.59-3.72-7.59-7.78V6.46h-.53Z"/><path class="cls-1" d="M115.16,20.66c0-3.28-1.99-4.68-4.56-6.02-2.63-1.37-3.08-2.07-3.08-3.22,0-.9,.67-1.85,2.32-1.85,1.32,0,2.74,.48,4.28,1.51v-2.1c-1.46-.95-2.86-1.32-4.23-1.32-2.77,0-4.45,1.71-4.45,3.98s1.4,3.36,4.2,4.87c2.38,1.26,3.44,2.35,3.44,4.26s-1.34,3.11-3.84,3.11c-1.76,0-3.58-.64-5.21-1.9v2.32c1.6,.95,3.36,1.51,5.24,1.51,3.36,0,5.88-1.93,5.88-5.15Z"/><path class="cls-1" d="M109.09,22.45c-1.54,0-3.7-1.01-5.04-2.27v.59c1.34,1.26,3.5,2.16,5.04,2.16,2.18,0,2.94-1.01,2.94-2.1,0-1.26-.39-2.16-3.42-3.72-2.88-1.43-4.2-3.05-4.2-5.35,0-3.11,2.13-5.04,5.35-5.04,1.51,0,3.08,.45,4.37,1.23v-.62c-1.29-.78-2.86-1.12-4.37-1.12-3.53,0-5.88,2.24-5.88,5.63,0,2.49,1.4,4.17,4.51,5.71,2.69,1.34,3.11,2.16,3.11,3.28,0,.9-.62,1.62-2.41,1.62Z"/><polygon class="cls-1" points="116.45 9.74 122.61 9.74 122.61 25.56 123.14 25.56 123.14 9.74 124.18 9.74 124.18 25.56 126.28 25.56 126.28 9.74 132.33 9.74 132.33 7.89 116.45 7.89 116.45 9.74"/><rect class="cls-1" x="116.45" y="6.46" width="15.88" height=".5"/><rect class="cls-1" y="2.94" width="132.33" height=".5"/><rect class="cls-1" y="1.47" width="132.33" height=".5"/><rect class="cls-1" width="132.33" height=".5"/><polygon class="cls-1" points="0 28.61 0 29.11 58.14 29.11 58.14 30.08 0 30.08 0 30.58 58.14 30.58 58.14 31.56 0 31.56 0 32.06 58.14 32.06 58.64 32.06 58.64 31.56 58.64 30.58 58.64 30.08 58.64 29.11 58.64 28.61 58.14 28.61 0 28.61"/><polygon class="cls-1" points="73.69 28.61 73.69 29.11 73.69 30.08 73.69 30.58 73.69 31.56 73.69 32.06 74.19 32.06 132.33 32.06 132.33 31.56 74.19 31.56 74.19 30.58 132.33 30.58 132.33 30.08 74.19 30.08 74.19 29.11 132.33 29.11 132.33 28.61 74.19 28.61 73.69 28.61"/></g></g></svg>